<svg width="200" height="200" viewBox="0 0 200 200" xmlns="http://www.w3.org/2000/svg">
  <circle cx="100" cy="100" r="80" fill="#7EC850" />
  
  <!-- Olhos -->
  <circle cx="70" cy="85" r="15" fill="#fff" />
  <circle cx="130" cy="85" r="15" fill="#fff" />
  <circle cx="70" cy="85" r="7" fill="#333" />
  <circle cx="130" cy="85" r="7" fill="#333" />
  
  <!-- Óculos -->
  <rect x="50" y="70" width="40" height="30" rx="5" ry="5" stroke="#333" stroke-width="3" fill="none"/>
  <rect x="110" y="70" width="40" height="30" rx="5" ry="5" stroke="#333" stroke-width="3" fill="none"/>
  <line x1="90" y1="85" x2="110" y2="85" stroke="#333" stroke-width="3" />
  <line x1="50" y1="80" x2="40" y2="75" stroke="#333" stroke-width="3" />
  <line x1="150" y1="80" x2="160" y2="75" stroke="#333" stroke-width="3" />
  
  <!-- Sorriso -->
  <path d="M65 120 Q100 150 135 120" stroke="#333" stroke-width="4" fill="none" />
  
  <!-- Jaleco -->
  <path d="M60 140 Q100 170 140 140 L135 160 Q100 185 65 160 Z" fill="#f5f5f5" stroke="#ccc" stroke-width="2"/>
  
  <!-- Gravata borboleta -->
  <polygon points="90,140 80,145 90,150" fill="#3366cc" />
  <polygon points="110,140 120,145 110,150" fill="#3366cc" />
  <circle cx="100" cy="145" r="5" fill="#3366cc" />
  
  <!-- Sobrancelhas -->
  <path d="M60 70 Q70 60 80 70" stroke="#333" stroke-width="4" fill="none" />
  <path d="M120 70 Q130 60 140 70" stroke="#333" stroke-width="4" fill="none" />
</svg>
